:SAMPLES-PER-SECOND 30
:FULLY-SPECIFIED
:DEGREES
1011
root  11.9463 40.2895 12.294 97.6865 86.5242 98.962
RightUpLeg  -7.07662 -21.5236 -12.628
RightLeg  17.0036 -3.98703 -1.03025
RightFoot  -1.65544 -0.344567 3.92784
RightToes  0.000481921 0.542163 -0.142578
Spine  15.3125 -0.107935 5.25652
Spine1  10.4818 0.645987 -0.386806
HEad  4.7049 2.03172 -2.5681
LeftShoulder1  7.87043 -13.6648 -39.6152
LeftArm  -6.18423 0.331713 -37.8381
LeftForeArm  -167.769 -48.4112 -170.081
LeftHand  -0.25398 0.0180481 5.50724
RightShoulder  4.89813 9.07025 33.0131
RightArm  -13.5899 18.5031 49.9158
RightForeArm  169.53 52.5538 166.839
RightHand  -0.223338 0.366601 -4.52938
LeftUpLeg  -2.46595 10.7939 6.12534
LeftLeg  8.50025 16.3162 -2.45241
LeftFoot  0.336901 0.499373 -4.90508
LeftToes  1.06245e-005 4.65869e-005 -8.65517e-006
1012
root  11.9205 40.1654 12.6328 89.1809 86.5574 91.3253
RightUpLeg  -7.31044 -21.2938 -12.0846
RightLeg  18.9844 -3.67527 -1.55518
RightFoot  -2.97044 -0.27264 3.44616
RightToes  0.000481921 0.542163 -0.142578
Spine  16.1302 -0.163107 4.52903
Spine1  10.4544 0.261269 0.608477
HEad  4.39995 2.7635 -3.13448
LeftShoulder1  7.77775 -13.5561 -39.3769
LeftArm  -8.15976 0.0627461 -36.0977
LeftForeArm  -168.006 -47.8606 -170.255
LeftHand  -0.25398 0.0180481 5.50724
RightShoulder  4.98939 9.37984 32.7853
RightArm  -14.1813 19.6094 49.5587
RightForeArm  173.093 53.09 166.847
RightHand  -0.319038 1.30698 -5.67681
LeftUpLeg  -2.33858 13.3977 6.70156
LeftLeg  10.3623 13.8437 -1.48467
LeftFoot  -0.2803 0.536048 -5.51709
LeftToes  1.06245e-005 4.65869e-005 -8.65517e-006
1013
root  11.9191 40.0779 12.9262 77.4458 86.4974 80.474
RightUpLeg  -7.13103 -20.6302 -11.7809
RightLeg  20.2992 -3.65203 -1.71961
RightFoot  -3.91968 -0.219757 2.9778
RightToes  0.000481921 0.542163 -0.142578
Spine  16.4219 -0.378135 4.56316
Spine1  10.9251 0.103571 0.459746
HEad  4.79074 3.43498 -3.0566
LeftShoulder1  7.69796 -13.4983 -39.0778
LeftArm  -10.1587 -0.822059 -34.502
LeftForeArm  -169.143 -48.6495 -169.901
LeftHand  -0.25398 0.0180481 5.50724
RightShoulder  5.06357 9.61465 32.657
RightArm  -14.2027 20.9574 48.6212
RightForeArm  167.053 56.7878 164.449
RightHand  -0.410578 1.18423 -7.42247
LeftUpLeg  -1.74235 15.2082 7.29504
LeftLeg  11.4137 12.3214 -0.780466
LeftFoot  -0.620179 0.563259 -5.95984
LeftToes  1.06245e-005 4.65869e-005 -8.65517e-006
1014
root  11.9885 40.085 13.1638 62.3868 86.2883 65.8738
RightUpLeg  -6.72162 -20.082 -11.3845
RightLeg  20.3307 -3.3651 -1.59647
RightFoot  -4.21692 -0.190508 2.61067
RightToes  0.000481921 0.542163 -0.142578
Spine  15.8578 -0.623352 5.23121
Spine1  11.5956 0.140492 -0.325442
HEad  5.82414 4.07891 -2.91536
LeftShoulder1  7.67514 -13.377 -39.2594
LeftArm  -11.755 -1.60768 -33.3821
LeftForeArm  -169.753 -49.7331 -169.466
LeftHand  -0.25398 0.0180481 5.50724
RightShoulder  5.07644 9.65303 32.6425
RightArm  -13.3696 21.5873 47.5616
RightForeArm  161.216 61.6246 160.865
RightHand  -0.388223 0.254183 -7.99645
LeftUpLeg  -0.623378 14.9532 8.04735
LeftLeg  10.8953 13.2536 -0.864092
LeftFoot  -0.451222 0.602758 -6.29135
LeftToes  1.06245e-005 4.65869e-005 -8.65517e-006
1015
root  12.1116 40.1672 13.3578 48.1902 85.9347 51.5257
RightUpLeg  -6.39547 -19.4812 -10.7336
RightLeg  19.3241 -3.19424 -1.36444
RightFoot  -4.01615 -0.164282 2.24472
RightToes  0.000481921 0.542163 -0.142578
Spine  14.951 -0.713396 6.16508
Spine1  11.7435 0.28777 -0.897813
HEad  6.60729 4.51771 -3.19179
LeftShoulder1  7.69946 -13.2331 -39.7682
LeftArm  -12.6053 -1.61551 -33.4263
LeftForeArm  -169.9 -50.0999 -169.318
LeftHand  -0.25398 0.0180481 5.50724
RightShoulder  5.03519 9.61101 32.4515
RightArm  -12.4806 20.1048 46.3
RightForeArm  165.853 63.8683 159.539
RightHand  -0.258049 -0.651288 -6.22202
LeftUpLeg  0.490723 13.2274 8.75701
LeftLeg  9.21625 15.8648 -1.48613
LeftFoot  0.131272 0.663072 -6.60487
LeftToes  1.06245e-005 4.65869e-005 -8.65517e-006
1016
root  12.2521 40.2713 13.5202 38.9882 85.7506 41.713
RightUpLeg  -6.17143 -18.7504 -9.99318
RightLeg  17.8423 -3.60067 -0.969047
RightFoot  -3.61537 -0.134052 1.79502
RightToes  0.000481921 0.542163 -0.142578
Spine  14.1088 -0.701208 7.00396
Spine1  11.2284 0.298989 -0.731313
HEad  6.46316 4.77901 -3.86322
LeftShoulder1  7.72478 -13.1765 -40.0599
LeftArm  -12.7423 -0.809312 -34.809
LeftForeArm  -170.264 -49.5789 -169.489
LeftHand  -0.25398 0.0180481 5.50724
RightShoulder  4.97688 9.55295 32.1751
RightArm  -11.7518 16.5623 44.1838
RightForeArm  175.515 62.1979 161.767
RightHand  -0.163899 -0.546741 -3.86918
LeftUpLeg  1.11619 11.3062 9.2728
LeftLeg  7.2536 18.403 -2.10521
LeftFoot  0.856218 0.72648 -6.84432
LeftToes  1.06245e-005 4.65869e-005 -8.65517e-006
1017
root  12.3821 40.359 13.6558 34.0946 85.9414 36.1213
RightUpLeg  -5.872 -18.0665 -9.41304
RightLeg  16.3542 -4.46704 -0.370352
RightFoot  -3.24286 -0.108105 1.39382
RightToes  0.000481921 0.542163 -0.142578
Spine  13.4418 -0.785065 7.3756
Spine1  10.4593 -0.0987644 0.319166
HEad  5.62317 5.24236 -4.67488
LeftShoulder1  7.72089 -13.1561 -40.0915
LeftArm  -12.5059 0.151588 -36.6135
LeftForeArm  -170.484 -48.7502 -169.78
LeftHand  -0.25398 0.0180481 5.50724
RightShoulder  4.91327 9.39028 32.1634
RightArm  -10.2907 12.6111 40.977
RightForeArm  175.92 58.8476 164.069
RightHand  -0.160834 -0.205127 -3.56236
LeftUpLeg  1.32228 10.0581 9.69239
LeftLeg  5.62522 19.7912 -2.50241
LeftFoot  1.46164 0.772284 -6.95835
LeftToes  1.06245e-005 4.65869e-005 -8.65517e-006
1018
root  12.4697 40.4073 13.7684 31.1895 86.22 32.7443
RightUpLeg  -5.60749 -17.472 -9.03778
RightLeg  15.3688 -5.33448 0.140125
RightFoot  -3.07101 -0.0960425 1.19378
RightToes  0.000481921 0.542163 -0.142578
Spine  13.2025 -1.02155 6.99113
Spine1  9.62189 -0.912998 2.14056
HEad  4.72718 6.26558 -5.41309
LeftShoulder1  7.68526 -13.054 -40.1585
LeftArm  -12.1658 0.64905 -37.665
LeftForeArm  -170.114 -48.3568 -169.945
LeftHand  -0.25398 0.0180481 5.50724
RightShoulder  4.82348 9.09096 32.3564
RightArm  -7.74577 9.48079 37.3907
RightForeArm  167.353 56.4774 164.711
RightHand  -0.26596 0.2669 -5.44733
LeftUpLeg  1.38263 9.6559 10.0993
LeftLeg  4.65325 20.1314 -2.76109
LeftFoot  1.78902 0.800496 -7.0451
LeftToes  1.06245e-005 4.65869e-005 -8.65517e-006
1019
root  12.4921 40.4082 13.8566 28.6326 86.1842 30.0405
RightUpLeg  -5.65984 -17.0831 -8.75453
RightLeg  15.2459 -5.66506 0.227748
RightFoot  -3.1615 -0.0928402 1.12068
RightToes  0.000481921 0.542163 -0.142578
Spine  13.5694 -1.35935 5.9257
Spine1  8.75904 -1.92075 4.27182
HEad  4.10837 7.95089 -5.91288
LeftShoulder1  7.63172 -12.9251 -40.1944
LeftArm  -11.9106 0.656585 -37.5815
LeftForeArm  -170.166 -48.7013 -169.817
LeftHand  -0.25398 0.0180481 5.50724
RightShoulder  4.70389 8.77041 32.3817
RightArm  -4.93103 7.25446 34.41
RightForeArm  161.376 56.258 164.327
RightHand  -0.406008 1.36078 -7.17813
LeftUpLeg  1.38137 9.8923 10.4379
LeftLeg  4.53698 20.0078 -2.87868
LeftFoot  1.81073 0.818029 -7.18637
LeftToes  1.06245e-005 4.65869e-005 -8.65517e-006
1020
root  12.4703 40.3815 13.9055 25.8003 85.7758 27.3362
RightUpLeg  -5.89644 -16.8554 -8.5694
RightLeg  15.6729 -5.45376 0.0407245
RightFoot  -3.36016 -0.0887101 1.02631
RightToes  0.000481921 0.542163 -0.142578
Spine  14.2648 -1.82846 4.64225
Spine1  8.17962 -2.97923 6.08757
HEad  3.70785 10.168 -6.15663
LeftShoulder1  7.58195 -12.9101 -39.9479
LeftArm  -11.9738 0.469874 -36.7904
LeftForeArm  -171.749 -49.1264 -169.561
LeftHand  -0.25398 0.0180481 5.50724
RightShoulder  4.58847 8.52995 32.1884
RightArm  -2.50685 5.80343 32.2788
RightForeArm  161.475 58.2524 163.152
RightHand  -0.3986 1.43135 -6.93057
LeftUpLeg  1.38743 10.452 10.6264
LeftLeg  5.06842 19.8261 -2.76891
LeftFoot  1.63549 0.822291 -7.31187
LeftToes  1.06245e-005 4.65869e-005 -8.65517e-006
1021
root  12.4546 40.3613 13.8989 22.6598 85.153 24.454
RightUpLeg  -5.94849 -16.6137 -8.57418
RightLeg  15.9504 -5.03379 -0.00920035
RightFoot  -3.44113 -0.0840797 0.921009
RightToes  0.000481921 0.542163 -0.142578
Spine  14.9319 -2.39792 3.61253
Spine1  8.0306 -3.98981 7.31817
HEad  3.32479 12.4252 -6.37611
LeftShoulder1  7.5495 -12.9824 -39.569
LeftArm  -12.3499 0.146922 -35.9701
LeftForeArm  -173.717 -48.315 -169.722
LeftHand  -0.25398 0.0180481 5.50724
RightShoulder  4.50926 8.39159 31.9655
RightArm  -0.504993 4.62069 30.7158
RightForeArm  162.469 60.4716 161.828
RightHand  -0.232783 -0.346628 -5.25034
LeftUpLeg  1.56753 10.9541 10.6639
LeftLeg  5.62287 19.892 -2.55042
LeftFoot  1.42144 0.81192 -7.33115
LeftToes  1.06245e-005 4.65869e-005 -8.65517e-006
1022
root  12.4755 40.3648 13.8421 19.6448 84.3734 21.5921
RightUpLeg  -5.85276 -16.2735 -8.72868
RightLeg  15.7897 -4.5722 0.183476
RightFoot  -3.32975 -0.0845176 0.894881
RightToes  0.000481921 0.542163 -0.142578
Spine  15.4859 -2.81827 2.98791
Spine1  7.9339 -4.70988 8.15458
HEad  2.85129 14.018 -6.78851
LeftShoulder1  7.51752 -12.9829 -39.3835
LeftArm  -12.6304 -0.579021 -35.6611
LeftForeArm  -173.881 -45.6433 -170.624
LeftHand  -0.25398 0.0180481 5.50724
RightShoulder  4.44637 8.34815 31.5722
RightArm  0.74498 2.43763 30.0379
RightForeArm  161.711 59.4673 162.382
RightHand  -0.100352 -2.6935 -3.61134
LeftUpLeg  1.92104 11.0972 10.5887
LeftLeg  5.74474 20.5165 -2.49512
LeftFoot  1.27094 0.794574 -7.25459
LeftToes  1.06245e-005 4.65869e-005 -8.65517e-006
1023
root  12.5301 40.3841 13.7562 17.3686 83.4576 19.1741
RightUpLeg  -5.9501 -15.7922 -8.87961
RightLeg  15.3919 -4.15847 0.431849
RightFoot  -3.09804 -0.0908915 0.965086
RightToes  0.000481921 0.542163 -0.142578
Spine  15.858 -2.96962 2.60446
Spine1  7.508 -5.05542 8.82443
HEad  2.5107 14.8364 -7.28253
LeftShoulder1  7.43674 -12.842 -39.2872
LeftArm  -12.5611 -1.7346 -35.9993
LeftForeArm  -171.98 -41.9252 -171.893
LeftHand  -0.25398 0.0180481 5.50724
RightShoulder  4.30749 8.25081 30.6902
RightArm  0.946739 -0.982339 31.4589
RightForeArm  162.208 54.0714 165.494
RightHand  -0.0809006 -2.98158 -2.98957
LeftUpLeg  2.19903 11.0004 10.4292
LeftLeg  5.51758 21.5753 -2.67395
LeftFoot  1.18308 0.776975 -7.14104
LeftToes  1.06245e-005 4.65869e-005 -8.65517e-006
